<svg width="158" height="27" viewBox="0 0 158 27" fill="none" xmlns="http://www.w3.org/2000/svg">
<rect width="158" height="27" fill="#E5E5E5"/>
<g clip-path="url(#clip0)">
<rect width="1400" height="2527" transform="translate(-82 -66)" fill="white"/>
<circle cx="120.5" cy="14" r="9.5" fill="#1D23B6"/>
<path d="M0.654297 26.3457V0.576172H18.3203V4.93555H5.85742V11.0352H16.6152V15.3945H5.85742V26.3457H0.654297ZM43.8613 26.3457H38.2012L35.9512 20.4922H25.6504L23.5234 26.3457H18.0039L28.041 0.576172H33.543L43.8613 26.3457ZM34.2812 16.1504L30.7305 6.58789L27.25 16.1504H34.2812ZM45.3203 17.9609L50.3828 17.4688C50.6875 19.168 51.3027 20.416 52.2285 21.2129C53.166 22.0098 54.4258 22.4082 56.0078 22.4082C57.6836 22.4082 58.9434 22.0566 59.7871 21.3535C60.6426 20.6387 61.0703 19.8066 61.0703 18.8574C61.0703 18.248 60.8887 17.7324 60.5254 17.3105C60.1738 16.877 59.5527 16.502 58.6621 16.1855C58.0527 15.9746 56.6641 15.5996 54.4961 15.0605C51.707 14.3691 49.75 13.5195 48.625 12.5117C47.043 11.0938 46.252 9.36523 46.252 7.32617C46.252 6.01367 46.6211 4.78906 47.3594 3.65234C48.1094 2.50391 49.1816 1.63086 50.5762 1.0332C51.9824 0.435547 53.6758 0.136719 55.6562 0.136719C58.8906 0.136719 61.3223 0.845703 62.9512 2.26367C64.5918 3.68164 65.4531 5.57422 65.5352 7.94141L60.332 8.16992C60.1094 6.8457 59.6289 5.89648 58.8906 5.32227C58.1641 4.73633 57.0684 4.44336 55.6035 4.44336C54.0918 4.44336 52.9082 4.75391 52.0527 5.375C51.502 5.77344 51.2266 6.30664 51.2266 6.97461C51.2266 7.58398 51.4844 8.10547 52 8.53906C52.6562 9.08984 54.25 9.66406 56.7812 10.2617C59.3125 10.8594 61.1816 11.4805 62.3887 12.125C63.6074 12.7578 64.5566 13.6309 65.2363 14.7441C65.9277 15.8457 66.2734 17.2109 66.2734 18.8398C66.2734 20.3164 65.8633 21.6992 65.043 22.9883C64.2227 24.2773 63.0625 25.2383 61.5625 25.8711C60.0625 26.4922 58.1934 26.8027 55.9551 26.8027C52.6973 26.8027 50.1953 26.0527 48.4492 24.5527C46.7031 23.041 45.6602 20.8438 45.3203 17.9609ZM70.668 26.3457V0.576172H75.8711V10.7188H86.0664V0.576172H91.2695V26.3457H86.0664V15.0781H75.8711V26.3457H70.668ZM96.5078 26.3457V0.576172H101.711V26.3457H96.5078ZM136.797 26.3457V0.576172H141.859L152.406 17.7852V0.576172H157.24V26.3457H152.02L141.631 9.54102V26.3457H136.797Z" fill="black"/>
</g>
<defs>
<clipPath id="clip0">
<rect width="1400" height="2527" fill="white" transform="translate(-82 -66)"/>
</clipPath>
</defs>
</svg>
